<?xml version="1.0" encoding="utf-8"?>
<!-- Generator: Adobe Illustrator 26.3.1, SVG Export Plug-In . SVG Version: 6.00 Build 0)  -->
<svg version="1.1" xmlns="http://www.w3.org/2000/svg" xmlns:xlink="http://www.w3.org/1999/xlink" x="0px" y="0px"
	 viewBox="0 0 256 256" style="enable-background:new 0 0 256 256;" xml:space="preserve">
<style type="text/css">
	.st0{fill:#6FF34D;}
</style>
<g id="Layer_1">
	<circle cx="128" cy="128" r="120.1"/>
	<path class="st0" d="M128,12.7c30.8,0,59.7,12,81.5,33.8c21.8,21.8,33.8,50.7,33.8,81.5s-12,59.7-33.8,81.5
		c-21.8,21.8-50.7,33.8-81.5,33.8s-59.7-12-81.5-33.8c-21.8-21.8-33.8-50.7-33.8-81.5s12-59.7,33.8-81.5
		C68.3,24.7,97.2,12.7,128,12.7 M128,3C59,3,3,59,3,128s56,125,125,125s125-56,125-125S197,3,128,3L128,3z"/>
	<path class="st0" d="M176.7,49.6H79.3v19.1H142l-62.8,39V206h17.1v-49.1l63.1,49.1h17.3v-95.6h-65.5l65.5-41.9L176.7,49.6
		L176.7,49.6L176.7,49.6z M159.4,129.4v51.1l-63.3-51v-0.1L159.4,129.4L159.4,129.4z"/>
</g>
<g id="Layer_2">
</g>
</svg>
