<?xml version="1.0" standalone="no"?>
<!DOCTYPE svg PUBLIC "-//W3C//DTD SVG 20010904//EN"
 "http://www.w3.org/TR/2001/REC-SVG-20010904/DTD/svg10.dtd">
<svg version="1.0" xmlns="http://www.w3.org/2000/svg"
 width="700.000000pt" height="700.000000pt" viewBox="0 0 700.000000 700.000000"
 preserveAspectRatio="xMidYMid meet">
<metadata>
Created by potrace 1.14, written by Peter Selinger 2001-2017
</metadata>
<g transform="translate(0.000000,700.000000) scale(0.100000,-0.100000)"
fill="#000000" stroke="none">
<path d="M3318 6915 c-2 -1 -43 -5 -93 -9 -49 -4 -103 -9 -120 -11 -16 -2 -55
-7 -85 -10 -30 -3 -62 -8 -71 -11 -10 -3 -30 -6 -45 -9 -16 -2 -62 -11 -103
-19 -498 -107 -936 -305 -1341 -605 -41 -30 -77 -58 -80 -61 -3 -3 -39 -32
-80 -65 -113 -90 -343 -325 -451 -460 -100 -124 -269 -365 -269 -383 0 -6 -4
-12 -8 -14 -11 -4 -74 -118 -143 -258 -156 -317 -274 -704 -314 -1030 -3 -19
-7 -48 -10 -65 -30 -180 -25 -663 10 -880 2 -16 7 -48 10 -70 3 -22 10 -60 15
-85 5 -25 12 -59 15 -77 9 -57 62 -255 95 -352 170 -513 449 -967 823 -1343
141 -142 148 -148 281 -257 307 -251 704 -466 1086 -590 161 -52 394 -109 515
-126 149 -21 190 -26 245 -31 185 -17 598 -7 775 20 38 6 114 18 125 21 3 1
25 5 50 9 25 4 90 19 145 33 55 14 105 26 110 27 222 51 579 203 843 360 95
57 283 184 337 228 172 141 229 191 335 298 434 435 740 972 890 1560 12 47
24 94 26 105 2 11 11 56 20 100 9 44 17 89 19 100 4 37 17 130 21 149 24 131
24 601 -1 801 -36 283 -127 645 -215 850 -5 11 -21 49 -36 85 -27 67 -150 317
-164 335 -4 6 -20 33 -36 60 -158 287 -488 674 -763 895 -24 19 -48 40 -55 46
-50 47 -265 194 -404 276 -308 182 -734 344 -1062 402 -19 3 -46 8 -60 11 -14
3 -38 7 -55 9 -16 3 -43 7 -60 10 -28 4 -108 14 -195 23 -40 4 -468 11 -472 8z"/>
</g>
</svg>
